<?xml version="1.0" encoding="UTF-8"?><svg id="Layer_2" xmlns="http://www.w3.org/2000/svg" viewBox="0 0 76.29 33.51"><defs><style>.cls-1{fill:#202020;}</style></defs><g id="Object"><g><path class="cls-1" d="M12.2,16.2c1.6,.83,3.52,1.82,5.04,2.61,.76,.39,1.43,.72,1.9,.96,.47,.23,.76,.37,.76,.37,.47,.27,.93,.55,1.4,.81l1.58,.87c2.05,1.09,4.14,2.11,6.26,3.03,4.25,1.82,8.65,3.3,13.16,4.2,4.5,.94,9.11,1.27,13.67,1.01,2.28-.15,4.55-.46,6.78-.92,2.24-.46,4.43-1.12,6.58-1.89,.84-.33,1.69-.62,2.51-1l1.24-.54,1.21-.59c.07-.02,.25,0,.29,.01,2.2,.54,1.85,2.07,1.36,2.84-.06,.12-.09,.14-.17,.17l-1.29,.63-1.32,.57c-.87,.4-1.78,.72-2.67,1.06-4.51,1.65-9.26,2.65-14.06,2.99-2.4,.15-4.8,.14-7.19-.01-2.39-.16-4.77-.5-7.11-.95-2.35-.44-4.66-1.06-6.93-1.76-2.28-.7-4.51-1.53-6.7-2.46-2.19-.93-4.34-1.93-6.43-3.04l-.79-.41-.52-.29-.72-.4c-.48-.26-.96-.53-1.43-.81,0,0-.5-.33-1.24-.83-.73-.52-1.71-1.18-2.64-1.89-1.89-1.38-3.66-2.84-3.47-2.75-1.45-1.25-2.52-2.43-2.58-2.88-.06-.46,.88-.17,3.55,1.28Z"/><path class="cls-1" d="M1.21,6.06l1.96,1.1c1.33,.76,2.62,1.43,3.91,2.11l1.19,.58,.96,.44c.64,.29,1.28,.58,1.93,.85,1.3,.55,2.61,1.07,3.94,1.55,1.71,.63,3.45,1.2,5.2,1.73,.07,.04,.19,.17,.21,.2,1.27,1.88-.07,2.77-.94,3.01-.13,.05-.16,.04-.24,.02-1.81-.55-3.61-1.14-5.38-1.79-1.36-.5-2.71-1.03-4.04-1.59-.67-.28-1.33-.58-1.99-.87l-.99-.46-.84-.4,.08,.27c.27,.87,.52,1.76,.75,2.65,0,0,.5,2.4,.67,4.8,.22,2.4,.05,4.75,.02,4.55-.16,1.97-.67,3.52-1.02,3.8-.18,.14-.33-.03-.45-.61-.11-.58-.21-1.57-.38-3.05-.26-1.75-.7-3.82-1.14-5.43-.44-1.62-.83-2.79-.83-2.79-.22-.88-.46-1.76-.73-2.64l-.19-.61c-.11-.35-.22-.69-.34-1.04l-.72-2.07L.27,6.14l-.19-.52c-.02-.08-.08-.19-.08-.24l.24,.14,.97,.54Z"/><path class="cls-1" d="M43.72,8.23c-.78,2.25-2.02,4.06-1.94,3.87-1.13,1.66-2.37,2.72-2.82,2.77-.23,.02-.26-.2-.06-.76,.2-.55,.63-1.44,1.19-2.81,.3-.82,.6-1.72,.82-2.62,.22-.9,.36-1.8,.44-2.59,.01-.2,.03-.39,.04-.57,0-.09,.01-.18,.02-.27,0-.18,0-.36,.01-.54,0-.36,.02-.69,.02-1,0-.08,0-.16,0-.23,0-.09-.02-.18-.03-.27-.02-.18-.04-.35-.05-.51-.03-.33-.07-.62-.09-.88-.01-.13-.03-.25-.04-.36,0-.06-.01-.11-.02-.16v-.08s0,0,.01-.01c.13-.07,.2-.11,.2-.11l.79-.32,.54-.22,.3-.11,.91-.35,.18-.07s.06-.03,.09-.02l.11,.15,.44,.61c.3,.44,.59,.74,.89,1.09l.89,1.02c.08,.08,.14,.16,.23,.24l.17,.16,.22,.21c1.15,1.1,2.45,2.03,3.84,2.77,1.49,.82,3.11,1.38,4.76,1.73,.07,.03,.19,.15,.21,.18,.67,.85,.78,1.55,.56,2.07-.21,.52-.75,.86-1.2,1.02-.13,.06-.16,.05-.25,.03-1.97-.42-3.9-1.1-5.68-2.07-1.52-.82-2.93-1.82-4.21-2.97l-.65-.62s-.03-.07-.08-.07c-.01,0-.03,.02-.05,.04-.01,.02-.01,0-.03,.07-.03,.14-.06,.28-.09,.43-.02,.09-.04,.18-.07,.27,.16,.21,.34,.46,.55,.79,.13,.22,.28,.46,.44,.72,.18,.25,.38,.53,.6,.83,.26,.35,.53,.72,.8,1.09,.31,.35,.62,.7,.93,1.05,.58,.73,1.31,1.29,1.89,1.84,.28,.29,.61,.47,.87,.67,.27,.2,.51,.37,.7,.51,.19,.15,.36,.25,.48,.31,.12,.07,.18,.1,.18,.1l1.17,.79,1.26,.65c1.91,.91,3.99,1.49,6.14,1.77,2.16,.25,4.37,.23,6.57,.02,1.76-.21,3.53-.48,5.27-.93,.08,0,.24,.05,.28,.07,2.03,1,1.36,2.42,.7,3.07-.09,.11-.12,.11-.2,.13-1.87,.47-3.78,.77-5.71,1-2.42,.23-4.87,.25-7.33-.03-2.45-.33-4.9-.99-7.18-2.09l-1.29-.67c-.42-.24-.82-.53-1.22-.8,0,0-.13-.1-.35-.27-.23-.17-.55-.41-.88-.75-.34-.33-.74-.72-1.17-1.13-.4-.44-.78-.94-1.17-1.42-.41-.47-.72-1-1.02-1.49-.29-.49-.58-.93-.78-1.32-.37-.8-.58-1.3-.51-1.21-.18-.46-.39-.89-.5-1.31-.02-.06-.03-.11-.04-.17Z"/></g></g></svg>
