<?xml version="1.0" encoding="UTF-8"?><svg id="Layer_2" xmlns="http://www.w3.org/2000/svg" viewBox="0 0 103.84 172.58"><g id="Layer_2-2"><g><path d="M99.31,130.94c-2.58-4.73-6.48-8.74-11.49-10.83-3.91-1.63-8.69-1.54-12.72,.07-2.08-6.53-5.83-14.2-12.11-16.95,.03-.05,.06-.1,.09-.14,1.16-1.99,1.4-3.77,.28-5.72-.38-.66-.79-1.28-1.24-1.84,5.51-3.56,10.48-8.09,15.04-12.68,6.86-6.89,13.07-14.64,17.86-23.12,9.09-16.08,12.8-35.91,1.69-52-.03-.05-.07-.08-.11-.13-.05-.07-.11-.13-.17-.2-.02-.02-.03-.03-.05-.04-.88-.86-2.44-1.04-3.2,.35-13.71,24.97-30.4,48.46-43,74.04-3-2.57-5-6.41-6.68-9.87-3.77-7.74-6.15-16.26-8.45-24.53-2.46-8.89-4.52-17.89-6.59-26.87-1.47-6.38-2.74-12.93-4.92-19.12-.81-2.28-4.32-1.44-3.88,.75-.05-.05-.09-.1-.14-.15-.05-.04-.1-.08-.15-.12-.04-.03-.09,.03-.06,.06,1.26,2.06-.35,5.91-.93,7.97-1.22,4.28-2.84,8.46-4.35,12.64-3.02,8.4-6.78,17.8-5.97,26.91,.9,10.17,9.51,18.92,16.53,25.5,4.26,4,8.74,7.77,13.04,11.71,1.86,1.71,3.68,3.47,5.4,5.31,.38,.4,.73,.79,1.07,1.18-2,.5-3.76,1.56-4.53,3.64-.7,1.88-.28,4,.77,5.72-7.77,1.72-13.96,7.92-15.36,15.91-.06,.38,.02,.71,.2,.96-7.09-.67-14.13,.93-19.07,6.45C1.47,130.99-.16,138.26,.01,145.06c.18,6.89,2.32,13.85,6.57,19.32,1.89,2.44,4.39,4.44,7.23,5.64,3.71,1.56,7.73,.8,11.4-.52,5.36-1.93,10.19-5.3,14.37-9.13,3.65-3.35,7.15-7.58,8.43-12.46,1.26-4.79-2.06-10.33-4.36-14.28-2-3.42-4.24-6.79-6.9-9.76,.07-.16,.11-.34,.12-.54,.14-5.88,4.04-9.67,7.1-14.12-.14,.88-.26,1.76-.36,2.66-.05,.44,.33,.79,.7,.92,3.65,1.31,7,.54,9.83-1.86,4.56,4.14,7.88,9,10.48,14.48-4.61,3.15-7.75,8.45-9.33,13.73-2.25,7.51-1.29,15.81,2.83,22.49,8.27,13.43,30.42,14.8,40.44,2.58,7.63-9.31,6.19-23.27,.75-33.25Zm-31.47-19.49c2.09,3.08,3.42,6.62,4.41,10.21-.19,.12-.37,.26-.56,.39-2.74-5.73-5.34-11.76-9.54-16.37,2.17,1.56,4.06,3.37,5.68,5.76Zm-23.24,30.19s-.08-.05-.09,0c-.25,2.33-.75,4.52-1.97,6.54-1.29,2.12-3.15,3.12-5.09,4.52-.39,.29-.17,1.02,.35,.84,5.04-1.74,7.17-6.93,6.8-11.89,.7,2.16,.99,4.35,.37,6.36-.7,2.26-2.01,4.34-3.58,6.24-.01-.17-.2-.34-.41-.25-2.48,1.15-4.99,1.91-7.71,2.17-2.5,.24-4.59-.6-6.96-1.1-.37-.08-.53,.37-.25,.59,4.13,3.12,10.98,.9,15.1-1.14-1.58,1.86-3.4,3.53-5.13,5.01-3.98,3.41-8.72,6.26-13.78,7.7-7.37,2.08-12.78-2.87-15.91-9.12-2.79-5.58-3.67-12.26-2.77-18.45,0,0,.02-.01,.03-.02,2.53-3.09,5.13-5.56,8.91-7.03,.16-.06,.1-.32-.07-.27-3.18,.99-6.42,2.77-8.53,5.42,.02-.09,.04-.19,.06-.29,.96-4.42,3.06-8.48,6.53-11.43,2.12,1,4.16,1.8,6.57,1.87,.03,0,.03-.05,0-.05-2.17-.08-4.21-1.18-6.12-2.18,2.53-1.99,5.59-2.95,8.74-3.26,1.26,2.48,3.18,4.57,5.17,6.54-.27-.03-.53-.05-.78-.04-1.02,.03-1.93,.06-2.79,.64-.39,.26-.5,.8-.15,1.15,.34,.34,.73,.59,1.15,.8-4.36,.56-8.14,2.96-9.88,7.68-.27,.74-.46,1.51-.58,2.28-3.29,.45-5.99,3.82-6.52,6.97-.06,.34,.4,.59,.59,.25,1.47-2.7,2.55-6.1,5.88-6.72-.27,2.56,.3,5.16,1.57,7.35-2.84,2.03-5.44,4.77-5.76,8.37-.03,.31,.47,.45,.6,.16,.79-1.7,1.28-3.47,2.33-5.06,.8-1.22,1.88-2.23,3.02-3.14,1.17,1.87,2.85,3.41,4.98,4.3,6.96,2.93,18.05-.67,19.83-8.58,.28-1.22,.28-2.42,.08-3.6,1-.58,1.59-2.01,1.95-3,.72-1.99,.46-4.35-.25-6.3,.34,.61,.69,1.22,1.02,1.83,1.15,2.11,2.61,4.7,3.46,7.35Zm-18.23-8.83c1.45,.52,2.81,1.26,4.08,2.13,2.61,1.78,4.82,4.72,5.12,7.93,.68,7.29-9.61,10.5-15.28,8.93-4.86-1.35-6.9-6.75-5.94-11.34,1.22-5.87,6.68-8,12.02-7.65Zm72.01,24.44c-2.79,6.19-8.41,9.6-14.97,10.6-5.7,.87-11.78-.16-16.61-3.35-4.3-2.85-6.89-7.64-8.07-12.54-.07-.3-.12-.61-.19-.92,.06-.05,.1-.13,.09-.23-.51-3.9,1.76-6.08,4.66-7.84-.03,5.94,2.28,12.4,6.82,16.12,4.19,3.44,10.46,3.38,15.25,.89,.03,.25,.24,.49,.56,.43,5.37-1.08,9.75-3.46,13.64-7.3,.02-.02-.01-.06-.04-.03-3.57,3.38-8.32,5.14-13.05,6.26,1.02-.64,1.96-1.4,2.76-2.27,4.48-4.86,3.36-12.15,.7-17.58-2.23-4.54-6.21-8.83-11.19-10.25-2.47-.7-4.8-.36-6.83,.67-4.97,.36-7.8,5.5-8.45,10.36-.09,.68-.14,1.37-.16,2.07-2.26,1.21-4.48,2.78-5.27,4.97-.18-2.59,0-5.2,.54-7.75,1.1-.34,2.11-1.32,2.97-2.05,.94-.8,1.81-1.69,2.66-2.57,.21-.21-.11-.53-.32-.33-.8,.77-1.62,1.53-2.48,2.25-.81,.68-1.77,1.18-2.63,1.79,.18-.76,.39-1.51,.64-2.25,1.22-3.65,3.35-6.68,6.02-9.25,.17,.39,.33,.77,.5,1.17,.77,1.85,3.68,1.2,3.09-.85-.24-.86-.55-1.74-.9-2.63,.58-.45,1.18-.88,1.78-1.29,.25-.17,.1-.59-.21-.5-.7,.19-1.38,.44-2.04,.71-2.58-5.8-7.27-11.64-12.66-14.39-.2-.87-1.36-1.54-2.17-.71-2.27,2.3-4.47,2.59-7.41,2.33-.13-1.08-.3-2.14-.52-3.2,.05-.08,.1-.16,.15-.23,.28-.47-.28-1.04-.75-.75-5,3.01-9.14,8.58-10.13,14.44-.22-.2-.43-.41-.66-.61-.54-.47-1.23,.24-.78,.78,.42,.51,.83,1.02,1.24,1.55,0,.12-.02,.23-.03,.35-.03,.9,.63,1.37,1.33,1.41,1.76,2.47,3.36,5.08,4.84,7.71-.07-.14-.29-.08-.25,.09,.4,1.7,.34,3.35-.1,5.04-.34,1.31-.9,2.09-1.61,2.96-.55-1.91-1.59-3.69-2.83-5.24-1.26-1.57-2.92-2.84-4.62-3.89-1.42-.87-3.56-2-5.44-2.35-1.93-2.01-3.82-4.15-5.03-6.66,2.01-.15,4.05-.05,6.01,.21,1.54,.2,2.03-2.16,.93-2.87,.15-.15,.27-.36,.31-.64,1.13-7.34,6.56-13.51,13.66-15.53,.41,.48,.87,.91,1.38,1.26-6.53,4.13-11.7,11.6-13.68,18.96-.21-.87-.17-1.91-.17-2.74,0-.18-.28-.18-.28,0,0,.99,0,2.2,.34,3.14-.21,.84-.39,1.67-.51,2.5-.06,.41,.47,.56,.62,.17,.2-.53,.4-1.07,.61-1.6,.34,.27,.78,.44,1.37,.46,.12,0,.12-.18,0-.18-.57-.03-.98-.2-1.29-.48,2.91-7.51,6.68-15.36,13.32-20.02,.48,.29,.99,.53,1.52,.68,.67,.19,1.08-.52,.83-1.08-.12-.27-.27-.54-.44-.81,.68-.39,1.38-.75,2.12-1.07,.05-.02,.01-.1-.03-.08-.75,.27-1.49,.6-2.22,.96-1.19-1.81-3.1-3.6-2.65-5.79,.32-1.58,2.02-2.45,3.78-2.95,.69,.67,1.43,1.3,2.34,1.85,.13,.08,.25,.16,.38,.24,1.09,.69,2.12-.44,1.95-1.5-.38-2.44-1.23-3.71-2.87-5.56-1.77-2-3.71-3.84-5.68-5.65-4.28-3.93-8.77-7.62-13.1-11.49-4.31-3.86-8.53-7.93-12.15-12.45-2.93-3.66-5.45-7.94-5.68-12.71-.46-9.36,3.43-19.09,6.18-27.88,1.22-3.88,2.66-7.87,3.25-11.91,.12-.8,.27-1.75,.27-2.69,1.71,5.53,2.85,11.27,4.14,16.89,2.12,9.2,4.24,18.39,6.78,27.49,2.34,8.4,5.08,16.77,9.17,24.5,1.66,3.14,4.59,8.04,8.35,10.03-.32,.67-.65,1.33-.97,2.01-.65,1.37,1.23,2.52,2.06,1.2,.5-.79,1-1.58,1.5-2.37,.34,.04,.68,.05,1.03,.04,.38-.02,.76-.08,1.14-.16,.44-.09,.34-.67,0-.8-.43-.16-.83-.36-1.23-.57,14.62-23.21,29.26-46.58,42.5-70.61,8.21,14.78,3.94,31.87-4.26,46.11-7.93,13.78-18.87,24.54-30.71,34.75-.44-.3-.91-.57-1.44-.8-.92-.4-1.61,.75-.79,1.35,.29,.21,.54,.44,.79,.68-1.06,.91-2.13,1.81-3.2,2.71-.68,.57,.18,1.49,.89,1.15,1.28-.61,2.53-1.28,3.75-2,.25,.41,.49,.85,.72,1.28,.76,1.46,.5,2.14-.35,3.56-.19,.31-.39,.55-.61,.75-.52-.08-1.05-.13-1.59-.15-.49-.01-.68,.68-.27,.93-.68,.11-1.4,.17-2.1,.42-1.4,.5-1.45,2.41,0,2.89,1.67,.55,3.44,.05,4.88-.94,4.63,5.03,6.69,11.84,10.04,17.81,0,.45,.24,.86,.62,1.08,.7,1.16,1.46,2.29,2.31,3.35v.1c0,.71,1.1,.71,1.1,0v-2.22c0-.71-1.1-.71-1.1,0v.64c-.34-.63-.67-1.27-.99-1.91,.07-.03,.14-.06,.21-.09,.82,1.26,3.13,.53,2.91-1.12,4.64-1.55,9.07-1.77,13.69,1.22,1.61,1.05,3.03,2.36,4.27,3.84-.36-.18-.75-.33-1.18-.42-.15-.03-.24,.17-.1,.25,1.51,.88,2.2,2.59,1.94,4.31-.14,.93-.59,1.78-1.08,2.57-.5,.81-1.06,1.12-1.2,2.06-.05,.32,.18,.57,.51,.51,2.15-.43,3.07-3.94,3.1-5.84,0-.25-.01-.49-.05-.72,1.58,2.55,2.73,5.4,3.49,8.2,1.58,5.87,1.59,12.54-.94,18.15Zm-32.35-19.42c.57,1.01,2.12,1.39,2.91,.09,1.56-2.58,3.59-5.33,6.85-5.53,2.73-.17,5.25,1.49,7.17,3.28,4.3,4.02,7.44,10.97,5.36,16.8-2.4,6.73-12.4,7.76-17.21,3.41-4.66-4.21-6.51-11.92-5.07-18.05Z"/><path d="M33.18,132.74c3-1.1,3.25-4.58,2.39-7.19-.07-.22-.42-.13-.35,.1,.39,1.35,.55,2.67,.12,4.03-.39,1.24-1.39,1.85-2.38,2.56-.23,.17-.1,.62,.21,.5Z"/><path d="M21.78,155.35c-.05-.17-.31-.1-.26,.07,1.3,4.77,6.15,5.95,10.52,4.81,.35-.09,.2-.6-.15-.53-4.16,.82-8.67,.29-10.1-4.35Z"/><path d="M19.36,164.27c-.95-.07-1.89-.03-2.83-.21-1.53-.3-1.46-1.36-1.24-2.61,.35-2.05,1.13-4.06,2.02-5.93,.15-.31-.32-.59-.47-.28-1.24,2.53-2.26,5.32-2.36,8.16-.02,.5,1.12,.98,1.45,1.12,1.03,.44,2.35,.38,3.43,.3,.35-.03,.35-.52,0-.55Z"/><path d="M67.7,66.26c2.87-2.99,4.83-7.3,6.81-10.91,2.19-3.98,4.25-8.04,6.32-12.09,4.13-8.06,8.21-16.11,14.2-22.99,.08-.09-.05-.22-.13-.13-5.79,6.27-10.09,13.66-14.13,21.12-2.16,4-4.15,8.08-6.27,12.1-1.07,2.01-2.18,4-3.32,5.97-1.27,2.18-2.91,4.25-3.98,6.54-.15,.32,.24,.67,.5,.39Z"/><path d="M69.49,72.74c-.17,.38,.31,.66,.55,.32,2.7-3.69,4.98-7.68,7.6-11.43,2.53-3.63,5.16-7.18,7.7-10.8,4.93-7.03,9.33-14.39,12.05-22.57,.06-.17-.21-.24-.27-.07-2.94,8.39-7.67,15.81-12.87,22.96-5.02,6.91-11.3,13.73-14.77,21.59Z"/><path d="M33.3,59.04c-8.24-11.88-11.48-26.84-11.61-41.13,0-.06-.09-.06-.09,0,0,14.33,3.14,29.37,11.3,41.36,.17,.24,.56,.01,.4-.23Z"/><path d="M30.59,69.7c-1.27-1.3-2.39-2.75-3.44-4.23-2.11-3-3.8-6.32-5.21-9.7-2.87-6.87-4.41-14.38-4.56-21.82,0-.41-.64-.41-.64,0-.04,7.81,1.48,15.58,4.31,22.85,1.37,3.52,3.14,6.86,5.32,9.94,1.52,2.15,3.97,5.88,6.62,6.55,.36,.09,.63-.29,.47-.6-.62-1.21-1.92-2.03-2.87-3Z"/><path d="M83.55,123.18c-.15-.04-.25,.18-.11,.25,3.66,1.8,2.1,5.89,1.9,9.05-.03,.44,.67,.65,.85,.23,1.48-3.39,1.6-8.39-2.65-9.53Z"/><path d="M97.39,136.93c-.13-.17-.4,.05-.29,.22,1.19,1.84,2.05,3.7,1.46,5.91-.54,1.98-2.43,3.6-3.98,4.78-.9,.68,.06,1.92,.94,1.23,1.85-1.46,3.95-3.33,4.19-5.85,.23-2.41-.87-4.44-2.32-6.29Z"/><path d="M90.29,162.1c-2.6,1.64-5.28,2.54-8.32,2.9-2.67,.32-5.04-.7-7.63-.91-.5-.04-.56,.62-.23,.86,4.89,3.54,12.25,.78,16.4-2.56,.16-.13-.05-.4-.22-.29Z"/><path d="M63.8,158.38c-.22-1.84,.6-3.67,1.5-5.22,.09-.16-.14-.28-.24-.14-1.75,2.58-3.27,7.31-.04,9.51,.28,.19,.59-.17,.44-.44-.72-1.28-1.47-2.17-1.66-3.71Z"/></g></g></svg>