<?xml version="1.0" encoding="UTF-8"?><svg id="Layer_2" xmlns="http://www.w3.org/2000/svg" viewBox="0 0 84.15 110.43"><g id="Layer_2-2"><g><path d="M83.34,17.38c-7.8-5.88-15.26-12.34-23.81-17.14-1.8-1.01-3.57,1.41-2.25,2.64-.01,.04-.03,.07-.04,.11-1.31,5.88-5.44,11.15-8.92,15.91-3.93,5.39-8.23,10.52-11.88,16.11-3.56,5.44-6.67,11.18-10.09,16.7-3.67,5.92-7.2,11.98-12.02,17.07-.89,.94-1.85,1.83-2.86,2.64-.21,.09-.41,.18-.62,.28-.21,.1-.36,.33-.37,.56,0,0,0,.01,0,.02-.01,.07,0,.14,.03,.21,.01,.03,.02,.07,.04,.1,.1,.21,.33,.37,.56,.37,.77,0,1.52-.09,2.27-.24-4.32,11.07-8.25,22.28-12.22,33.48-.19,.28-.37,.56-.55,.84-.09,.14-.02,.29,.09,.37,0,.03,0,.05,0,.08-.22,.61-.43,1.23-.65,1.84-.29,.81,.76,1.44,1.37,.9,4.85-4.26,10.04-8.09,15.3-11.84,.82,.12,1.72-.46,1.75-1.24,5.56-3.94,11.17-7.82,16.5-12.05,.54-.43-.16-1.2-.71-.8-4.71,3.49-9.58,6.77-14.42,10.08-.34-1-.86-1.82-1.51-2.5-.18-.67-.78-1.2-1.46-1.17-2.12-1.32-4.93-1.81-7.51-2.18,2.01-5.48,4.07-10.93,6.23-16.35,1.3-.36,2.6-.76,3.93-.96,1.13-.17,2.45-.23,3.44,.43,1.27,.84,1.01,3.4,.85,4.63,0,.05,0,.09,0,.12-.24,.25-.46,.52-.68,.81-.24,.32,.16,.66,.48,.54,3.56-1.41,7.42-2.38,11.27-2.21,.87,2.84,.88,5.91,1.22,8.84,.05,.41,.64,.32,.68-.05,.04-.31,.08-.62,.12-.93,.12,.16,.38,.2,.55-.01,1.94-2.36,3.98-4.66,5.7-7.19,1.85-2.72,3.7-5.43,5.55-8.14,3.77-5.51,7.48-11.07,11.28-16.56,7.52-10.88,15.22-21.65,23.83-31.71,.64-.75,.17-1.89-.5-2.4ZM18.01,94.53c-.08,.04-.16,.09-.25,.15-.21,.12-.43,.25-.64,.38-.12-.12-.24-.25-.37-.36,.21-.23,.42-.45,.63-.68,.22,.16,.44,.32,.64,.5Zm-3.88-1.8c-.07-.06-.13-.11-.19-.17,.1,.03,.2,.05,.29,.08-.03,.03-.07,.06-.1,.09Zm-6.66,1.89s.08,0,.11,0c-.26,.43-.52,.85-.78,1.28-.08,.11-.16,.22-.24,.33,.19-.54,.39-1.08,.59-1.62,.1,.02,.2,.03,.32,.02Zm1.25-2.85c.19,.02,.39,.04,.59,.06,0,0,0,0,0,.01-.39,.01-.78,.04-1.17,.06,.03-.09,.06-.17,.09-.26,.15,.06,.31,.11,.49,.13ZM58.32,10.06c.88-1.67,1.68-3.4,2.18-5.23,1.41,.87,2.8,1.79,4.16,2.73-2.39,.47-4.63,1.28-6.52,2.82,.06-.11,.12-.21,.17-.32Zm-4.22,6.92c2.37-.76,4.85-1.26,7.25-1.9,1.37-.37,4.03-.73,4.54-2.32,.05-.14-.12-.32-.26-.22-3.33,2.22-7.66,2.43-11.29,4.1,1.29-1.9,2.5-3.84,3.6-5.85,2.2-1.63,4.82-2.31,7.52-2.68,1.18,.83,2.35,1.68,3.51,2.54-.79,.47-1.59,1.27-1.89,1.64-2.29,2.86-4.66,5.67-7.02,8.51-3.45,1.47-7.21,2.15-10.74,3.39-.14,.05-.06,.29,.09,.25,3.17-.91,6.46-1.36,9.58-2.36-1.11,1.33-2.21,2.67-3.29,4.03-3.91,1.13-8.07,1.87-11.3,4.47-.08,.07,.02,.18,.11,.12,3.06-2.18,6.87-2.77,10.48-3.69-1,1.26-1.99,2.54-2.95,3.83-1.8,.61-3.6,1.21-5.43,1.75-2.06,.62-4.03,1.26-5.89,2.28,1.91-2.64,3.89-5.23,5.89-7.83,2.54-3.3,5.13-6.6,7.49-10.06Zm-9.22,24.76c-3.39,.9-6.88,1.64-9.94,3.34-.09,.05-.02,.18,.07,.14,2.94-1.12,6.1-1.54,9.15-2.27-.79,1.36-1.58,2.73-2.37,4.1-1.01,.32-2.05,.56-3.08,.79-2.32,.5-4.76,.83-7.15,.92,1.43-2.23,2.84-4.48,4.26-6.73,.42-.66,.85-1.32,1.28-1.98,2.06-.44,4.11-.97,6.12-1.56,1.41-.42,2.82-.82,4.23-1.21,.05-.01,.1-.02,.14-.04-.07,.11-.14,.21-.2,.32-.86,1.38-1.7,2.77-2.53,4.17Zm3.44-5.58c-.35,.11-.69,.22-1.02,.31-1.42,.38-2.82,.81-4.23,1.24-1.87,.56-3.71,1.2-5.57,1.78,.98-1.47,1.99-2.91,3.02-4.34,3.37-1.42,7.09-1.91,10.57-3.01-.96,1.32-1.89,2.66-2.78,4.03Zm-16.91,12.86c2.36,.14,4.67-.06,6.99-.47,.98-.17,1.96-.4,2.92-.66-.74,1.29-1.48,2.59-2.23,3.88-.82,.22-1.62,.41-2.29,.61-2.22,.68-4.51,1.27-6.59,2.31-.15,.08-.04,.31,.12,.24,2.45-1.07,5.14-1.57,7.73-2.23,.18-.05,.37-.09,.58-.14-.75,1.28-1.51,2.56-2.29,3.83-.03,.04-.05,.08-.08,.12-.1,.04-.19,.07-.29,.1-1.42,.46-2.86,.85-4.28,1.27-2.42,.7-4.78,1.5-6.94,2.85-.06,.04-.01,.13,.05,.1,2.35-1.18,4.96-1.81,7.49-2.49,1.14-.31,2.28-.61,3.42-.94-.68,1.1-1.37,2.21-2.05,3.31-2.43,.81-4.83,1.49-7.34,2.08-2.28,.54-4.53,1.26-6.34,2.81-.05,.05,.02,.12,.07,.08,3.75-2.96,8.88-2.18,13.02-4.03-.93,1.49-1.86,2.97-2.79,4.47-.22,.36-.45,.71-.68,1.06-.13,.02-.26,.04-.38,.05-1.84,.23-3.69,.35-5.54,.47-2.4,.15-4.76,.32-7.13,.66,2.77-2.66,5.2-5.73,7.5-8.72,2.62-3.42,5.01-6.98,7.34-10.6Zm-17.29,21.49c.07-.06,.14-.11,.2-.17-.02,.04-.03,.08-.05,.12-.05,.01-.1,.03-.16,.04Zm7.42-1.02c-1.68-.26-3.51,.13-5.15,.48-.09,.02-.17,.04-.26,.06-.18-.29-.55-.46-.91-.44,.46-.4,.91-.81,1.35-1.23,2.66-.36,5.4-.3,8.06-.38,1.4-.04,3-.03,4.57-.16-1.35,2.05-2.78,4.07-4.04,6.17,.1-.88,.02-1.75-.43-2.62-.62-1.2-1.93-1.68-3.18-1.88Zm36-20.41c.24-1.25,.2-2.52-.1-3.86-.38-1.69-1.41-4.75-3.18-5.39-.27-.1-.47,.16-.44,.4,.07,.76,.58,1.36,.99,1.99,.57,.89,1.02,1.86,1.36,2.86,.66,1.95,.65,4.1-.01,6.04,0,.03,0,.05-.01,.08-1.18,1.79-2.36,3.58-3.53,5.37,.57-3.76-.42-8.64-4.59-9.59-.3-.07-.46,.28-.23,.48,1.53,1.29,2.87,2.29,3.72,4.17,.83,1.84,.82,3.99,.44,5.94-.93,1.44-1.85,2.89-2.77,4.34,.36-1.35,.36-2.78-.04-4.24-.59-2.16-2.46-4.83-4.83-5.15-.25-.04-.4,.31-.23,.49,.66,.7,1.51,1.21,2.22,1.86,.82,.76,1.41,1.73,1.83,2.76,.82,1.99,.62,4.38-.24,6.34-.42,.68-.85,1.35-1.27,2.03-1.73,2.8-3.45,5.6-5.18,8.4-1.66,2.69-3,5.55-4.42,8.37,.42-2.9,.94-5.83,.03-8.7-.18-.58-.56-.93-1.17-1-3.08-.36-6.37-.17-9.1,1.16,2.01-2.15,3.79-4.6,5.53-6.94,.52-.15,1.01-.33,1.47-.55,.17-.09,.07-.31-.1-.3-.27,.02-.54,.06-.81,.11,.14-.18,.28-.37,.41-.55,2.87-3.8,5.39-7.88,7.92-11.92,4.24-6.78,8.08-13.82,12.84-20.26,1.81-2.45,3.7-4.84,5.63-7.21,.02,.04,.05,.07,.09,.1,1.94,1.22,3.6,1.92,4.73,4.07,1.09,2.05,1.25,4.82,.62,7.04-.03,.11,.11,.18,.18,.1-.69,.96-1.38,1.93-2.06,2.9,.13-.75,.1-1.54-.14-2.36-.68-2.28-2.97-3.95-5.28-4.15-.3-.03-.4,.38-.18,.54,1.57,1.1,3.41,1.9,4.27,3.73,.91,1.93-.17,4.25-1.28,5.83-.05,.07-.05,.14-.03,.21-1.03,1.49-2.04,2.99-3.05,4.49Zm7.79-11.23c1.36-2.29,1.35-4.77,.4-7.25-.84-2.17-3.1-4.73-5.66-4.49,2.31-2.84,4.65-5.64,6.96-8.47,.83-1.02,1.63-2.05,2.41-3.1,.49-.66,1.14-1.6,1.34-2.51,3.06,2.34,6.08,4.74,9.13,7.08-5.11,6.04-9.95,12.32-14.58,18.74Z"/><path d="M37.55,65.58c-.23-.13-.59,.11-.42,.38,.93,1.46,2.25,2.49,3.01,4.11,.85,1.82,.83,3.8,.15,5.66-.07,.2,.22,.28,.3,.1,.82-1.83,.95-3.72,.31-5.63-.55-1.62-1.83-3.77-3.35-4.62Z"/><path d="M39.93,59.2c-.32-.01-.45,.41-.19,.59,1.58,1.09,3.18,1.6,3.99,3.5,.86,1.99,.04,4.29-.97,6.05-.15,.27,.23,.52,.4,.26,1.33-1.94,2.27-4.29,1.48-6.63-.65-1.92-2.66-3.7-4.72-3.77Z"/><path d="M63.97,22.38c-.26-.04-.46,.35-.26,.53,1.3,1.13,2.73,1.91,3.82,3.3,1.06,1.34,1.82,3.21,1.86,4.93,0,.2,.32,.28,.36,.07,.64-3.51-2.09-8.22-5.78-8.82Z"/><path d="M69.76,18.27c-.26,.04-.3,.34-.17,.52,.68,.94,2.04,1.32,2.83,2.26,1.05,1.26,.93,2.96,.6,4.45-.05,.22,.26,.41,.38,.18,.81-1.51,.87-3.1,.13-4.66-.59-1.24-2.3-2.98-3.77-2.75Z"/><path d="M73.01,16.14c1.79,1.08,4.36,2.5,3.08,4.94-.03,.06,.05,.12,.09,.06,.69-.96,1.11-1.69,.65-2.88-.58-1.51-2.21-2.15-3.63-2.5-.22-.05-.4,.25-.18,.38Z"/></g></g></svg>