<?xml version="1.0" encoding="UTF-8"?><svg id="Layer_2" xmlns="http://www.w3.org/2000/svg" viewBox="0 0 95.65 94.01"><g id="Elements"><g><path d="M88.05,81.61c.43-.9,1.26-1.81,1.22-2.7-.22-5.59-.37-11.2-1.08-16.74-.47-3.67-2.71-4.63-5.88-2.92-4.74,2.56-9.36,5.34-14.01,8.02,2.75,2.92,5.12,2.77,13.24-1.2-.39,1.33-.53,2.31-.94,3.15-6.48,13.03-25.26,25.29-44.55,18.02-8.01-3.02-15.67-6.57-22.22-12.19-4.43-3.8-8.2-8.11-10.32-13.68-.3-.78-1.04-1.4-1.71-2.27-2.59,2.71-2.04,5.41-.58,7.73,1.94,3.1,4.07,6.21,6.65,8.78,10.1,10.03,22.41,16.01,36.41,18.1,14.04,2.1,30.69-7.31,37.35-20.54,.91-1.81,1.72-3.67,2.87-6.13,2.08,5.04,.06,10.14,2.26,14.41,.43,.05,.86,.1,1.29,.15Z"/><path d="M95.65,40.03c-.16-1.69-.08-3.44-.53-5.05-.65-2.3-1.44-4.64-2.59-6.72C85.26,15.22,74.62,5.64,60.33,1.69,45.74-2.35,31.96,.86,20.47,11.31c-5.75,5.23-10.23,11.49-13.58,18.54-.61,1.27-1.24,2.53-2.27,4.61-1.29-2.91-2.27-5.13-3.25-7.35-.32,.07-.64,.14-.95,.21-.13,.69-.41,1.39-.35,2.06,.3,3.51,.66,7.02,1.05,10.53,.26,2.25,.54,4.67,2.95,5.65,2.6,1.05,4.78-.37,6.46-2.14,2.31-2.43,4.4-5.09,6.4-7.78,.41-.56,.02-1.71,0-2.58-.87,.03-2-.29-2.57,.14-1.78,1.33-3.35,2.94-5.03,4.48-.12-.28-.28-.46-.24-.57C16.86,15.1,32.88,2.02,55.66,4.26c1.11,.11,2.23,.34,3.29,.68,15.3,4.89,26.61,14.45,33.52,29.01,.92,1.93,1.28,4.13,1.91,6.21,.42-.04,.85-.08,1.27-.13Z"/></g></g></svg>