<?xml version="1.0" encoding="UTF-8"?><svg id="Layer_2" xmlns="http://www.w3.org/2000/svg" viewBox="0 0 24.32 28.91"><g id="OBJECTS"><path d="M16.36,10.28c1.99-1.56,4-3.09,5.96-4.68,.65-.52,1.22-1.16,1.73-1.82,.39-.5,.35-1.11-.09-1.6-.5-.55-1.11-.54-1.73-.23-.23,.12-.43,.3-.64,.46-2.48,1.95-4.97,3.9-7.45,5.85-.2,.15-.43,.26-.74,.45-.31-.57-.55-1.1-.86-1.57-1.33-2.02-2.67-4.03-4.04-6.02-.26-.38-.62-.74-1.01-.97-.68-.4-1.46,.09-1.4,.88,.03,.4,.21,.82,.4,1.18,.48,.88,1.03,1.71,1.51,2.59,.95,1.76,1.88,3.53,2.8,5.31,.22,.42,.43,.89-.36,1.15-.2-.28-.42-.55-.6-.86-1.4-2.35-2.79-4.71-4.2-7.05-.43-.72-.9-1.43-1.4-2.1-.33-.44-.82-.69-1.39-.43-.63,.29-.78,.85-.63,1.46,.13,.5,.33,1,.58,1.46,1.46,2.68,2.94,5.35,4.41,8.03,.27,.5,.53,1,.84,1.58-.59,.45-1.07,.85-1.59,1.2-1.67,1.1-3.36,2.17-5.03,3.27-.44,.29-.94,.57-1.2,.99-.21,.34-.28,.97-.1,1.29,.18,.32,.77,.57,1.17,.55,.49-.02,1-.3,1.46-.54,.92-.47,1.82-.98,2.73-1.48l.15,.27c-.86,.77-1.75,1.5-2.57,2.32-.36,.36-.71,.83-.8,1.31-.08,.38,.1,1.01,.39,1.23,.28,.22,.88,.16,1.28,.03,.37-.12,.65-.52,.99-.76,1.96-1.39,3.93-2.76,5.98-4.21,.36,.67,.61,1.12,.86,1.58,1.24,2.32,2.45,4.66,3.71,6.97,.76,1.39,1.59,1.83,2.44,1.41,.87-.43,.96-1.33,.21-2.76-1.31-2.52-2.64-5.03-3.96-7.55-.19-.37-.42-.75-.51-1.15-.04-.21,.19-.47,.31-.73,.21,.13,.34,.17,.38,.25,1.27,2.24,2.81,4.33,3.57,6.84,.32,1.07,.89,1.45,1.67,1.31,.82-.15,1.32-.9,1.14-1.96-.13-.77-.37-1.55-.72-2.24-.81-1.59-1.73-3.13-2.59-4.7-.27-.49-.5-1-.79-1.57,2.09-1.6,4.05-3.1,6-4.61,.41-.32,.85-.64,1.19-1.03,.45-.52,.56-1.14,.14-1.75-.42-.62-1.06-.68-1.69-.43-.48,.19-.94,.48-1.36,.79-1.6,1.2-3.18,2.42-4.78,3.63-.26,.2-.55,.35-.83,.53,.25-.62,.65-1,1.09-1.35Z"/></g></svg>