<?xml version="1.0" encoding="UTF-8"?><svg id="Layer_2" xmlns="http://www.w3.org/2000/svg" viewBox="0 0 88.55 24.75"><g id="Elements"><path d="M77.93,12.39c-1.82-4.17-3.51-8.03-5.39-12.33,3.07-.39,4.7,1.11,5.73,2.72,3.36,5.24,6.79,10.51,9.51,16.09,2.11,4.32-.24,6.59-5.15,5.68-4.09-.76-8.17-1.62-12.29-2.17-2.01-.27-4.1,.16-6.14,.08-.94-.04-1.86-.53-2.78-.82,.5-1.05,.74-2.66,1.55-3.03,1.53-.7,3.39-.72,5.12-.96,.91-.13,1.84-.11,3.99-.23-1.94-1.17-2.85-2.05-3.92-2.31-6.52-1.61-13-3.67-19.62-4.48-14.88-1.82-29.76-1.91-44.18,3.3-.75,.27-1.58,.58-2.32,.49-.7-.08-1.65-.52-1.91-1.07-.26-.54-.03-1.74,.42-2.11,1.35-1.09,2.8-2.3,4.41-2.77,4.6-1.34,9.24-2.73,13.97-3.4,15.56-2.24,31.04-1.57,46.25,2.54,4.14,1.12,8.07,3.01,12.78,4.81Z"/></g></svg>